<?xml version="1.0" standalone="no"?>
<!DOCTYPE svg PUBLIC "-//W3C//DTD SVG 20010904//EN"
 "http://www.w3.org/TR/2001/REC-SVG-20010904/DTD/svg10.dtd">
<svg version="1.0" xmlns="http://www.w3.org/2000/svg"
 width="422.000000pt" height="574.000000pt" viewBox="0 0 422.000000 574.000000"
 preserveAspectRatio="xMidYMid meet">

<g transform="translate(0.000000,574.000000) scale(0.100000,-0.100000)"
fill="#000000" stroke="none">
<path d="M1930 5714 c-520 -80 -709 -127 -902 -224 -173 -86 -272 -179 -394
-366 -201 -309 -327 -529 -400 -695 -125 -283 -183 -588 -139 -733 20 -65 19
-83 -5 -91 -30 -10 -58 -57 -77 -128 -19 -73 -19 -76 62 -447 19 -85 41 -225
50 -311 8 -86 20 -181 25 -210 14 -73 59 -167 116 -240 47 -62 136 -139 159
-139 10 0 14 -58 17 -277 l5 -278 37 -140 c77 -292 93 -327 252 -541 152 -205
205 -259 262 -268 97 -15 184 -92 222 -195 11 -31 26 -66 32 -78 36 -71 139
-158 276 -231 l87 -47 172 3 172 3 108 -37 c96 -32 116 -35 183 -31 95 6 140
21 325 112 83 41 192 90 244 110 118 45 212 107 290 191 83 90 385 538 437
648 82 176 125 354 143 596 6 80 16 172 23 204 10 55 14 60 48 73 65 26 85 77
120 316 24 162 49 238 145 437 77 161 102 244 91 302 -5 30 -11 35 -52 46
l-45 12 28 38 c80 103 94 150 102 339 7 151 7 153 36 183 29 30 29 33 33 159
7 209 -26 415 -93 587 -77 197 -300 610 -466 862 l-54 83 -110 54 c-60 29
-141 65 -180 78 -38 14 -112 44 -163 66 -185 82 -431 157 -647 196 -127 24
-450 29 -575 9z m90 -215 c0 -146 9 -197 40 -239 16 -21 22 -23 46 -15 50 18
62 49 79 200 19 172 22 185 40 185 13 0 15 -28 15 -180 0 -168 1 -181 21 -201
21 -21 52 -19 75 5 7 6 37 89 69 184 47 143 60 172 76 172 24 0 24 8 -6 -222
-15 -112 -21 -196 -16 -201 24 -24 54 4 154 143 99 139 137 175 137 132 0 -11
-18 -57 -41 -103 -58 -116 -60 -125 -47 -154 10 -23 14 -26 37 -29 5 -1 35 35
68 79 72 96 97 120 119 111 22 -9 14 -41 -41 -151 -50 -101 -52 -110 -27 -120
13 -5 46 23 142 123 69 72 135 135 147 141 48 24 32 -14 -48 -112 -45 -56 -89
-111 -98 -122 -15 -19 5 -2 114 97 167 152 215 184 215 141 0 -9 -70 -87 -155
-174 -137 -138 -171 -179 -149 -179 4 0 28 16 55 36 78 57 118 29 61 -44 -34
-44 -46 -72 -30 -72 6 0 55 34 110 75 61 46 109 75 124 75 43 0 29 -31 -59
-129 -36 -39 -38 -44 -23 -59 14 -15 20 -15 63 1 69 25 119 21 190 -12 82 -39
181 -139 224 -226 30 -62 31 -67 27 -167 -9 -195 -75 -300 -313 -493 -117 -96
-267 -241 -294 -285 -25 -41 -27 -73 -6 -90 13 -11 27 -8 83 13 99 39 123 42
173 20 73 -33 82 -46 74 -119 l-6 -62 33 -7 c50 -11 157 -68 216 -115 69 -56
104 -115 100 -172 -4 -62 -32 -62 -128 -1 -57 37 -87 49 -129 54 -62 6 -511
-14 -661 -30 -52 -6 -119 -11 -148 -11 l-52 0 -105 -107 c-103 -106 -122 -132
-87 -118 41 16 102 28 108 22 11 -11 23 -214 23 -397 1 -203 12 -307 46 -442
14 -53 25 -115 25 -137 0 -47 -30 -88 -87 -116 -21 -11 -60 -44 -88 -73 -50
-51 -51 -52 -110 -52 -75 0 -127 14 -151 41 -42 47 -169 95 -280 107 l-75 8 6
-30 c11 -56 28 -76 84 -101 92 -42 106 -50 109 -66 1 -9 -8 -21 -22 -27 -14
-6 -36 -33 -51 -61 -14 -28 -33 -55 -44 -60 -17 -10 -19 -5 -25 52 -11 99 -10
99 -125 39 -81 -42 -109 -52 -149 -52 -44 0 -51 -3 -56 -24 -9 -37 -92 -143
-131 -168 -19 -13 -35 -26 -35 -30 0 -13 89 -9 154 8 33 8 96 26 139 39 57 18
119 27 238 35 89 6 182 15 208 21 114 24 115 24 155 -11 42 -38 66 -78 66
-114 0 -19 -7 -26 -32 -32 -50 -11 -125 -7 -201 10 -85 20 -197 20 -285 2 -37
-8 -119 -24 -182 -35 -189 -34 -185 -32 -285 -135 -49 -50 -103 -100 -119
-111 -61 -42 -84 -75 -51 -75 28 0 88 37 180 109 104 82 167 109 275 118 98 7
196 -7 412 -61 95 -24 222 -49 282 -55 163 -18 267 -65 240 -109 -18 -28 -89
-62 -166 -78 -56 -12 -110 -15 -238 -11 -180 6 -302 27 -438 75 l-79 28 34
-32 c25 -24 33 -38 28 -52 -4 -15 3 -25 30 -42 44 -27 44 -43 2 -85 -51 -51
-118 -66 -273 -63 l-129 3 -26 50 c-40 76 -58 81 -179 50 -117 -31 -154 -28
-240 15 -122 62 -230 157 -288 253 -34 56 -156 341 -188 437 -15 47 -18 104
-23 390 -7 522 -3 635 34 900 9 58 16 175 18 261 l2 157 39 56 c36 52 38 58
26 86 -17 42 -8 88 39 185 45 93 121 182 186 221 55 32 72 51 58 65 -15 15
-35 3 -184 -106 -69 -51 -140 -100 -157 -109 -46 -24 -89 -20 -118 9 -22 22
-24 30 -18 75 l7 50 -52 50 c-63 61 -65 85 -6 85 22 0 54 -4 70 -8 l30 -7 -25
15 c-14 8 -53 24 -87 35 -70 24 -81 34 -62 57 11 12 26 14 74 9 33 -3 71 -8
85 -12 14 -3 -11 15 -55 40 -93 54 -120 78 -112 100 9 23 54 30 121 19 34 -6
63 -9 65 -7 5 4 -65 72 -142 137 -31 27 -57 55 -57 63 0 33 55 7 209 -101 141
-99 191 -128 191 -111 0 2 -43 39 -95 81 -133 108 -129 128 16 75 93 -35 141
-35 68 -2 -79 37 -209 113 -209 122 0 32 97 52 152 31 13 -4 36 -11 53 -15
l30 -8 -28 22 c-15 12 -27 26 -27 31 0 15 124 11 146 -6 28 -21 40 -18 18 6
-10 11 -54 39 -99 62 -84 44 -175 122 -175 150 0 25 22 21 77 -13 63 -39 172
-62 300 -64 94 -1 104 1 125 21 14 15 19 26 13 32 -6 5 -55 32 -110 60 -224
114 -282 199 -99 147 49 -14 107 -28 129 -31 l40 -7 -50 35 c-87 60 -178 171
-200 245 -12 41 16 24 111 -68 98 -95 223 -183 282 -199 67 -19 69 5 6 80 -26
30 -72 88 -102 129 -66 90 -61 84 -66 79 -3 -2 8 -35 24 -72 44 -105 25 -124
-57 -58 -75 60 -153 151 -153 177 0 32 39 9 102 -58 l67 -73 -20 53 c-10 29
-19 66 -19 82 0 50 25 48 85 -6 30 -27 90 -81 134 -121 60 -54 85 -70 100 -66
26 7 27 34 3 50 -48 29 -154 128 -168 156 l-17 31 38 31 c29 25 36 37 30 53
-3 12 -2 22 3 22 5 0 57 -43 116 -95 115 -103 143 -114 172 -70 16 24 15 29
-26 128 -74 179 -80 196 -70 202 5 3 41 -41 81 -97 102 -143 135 -178 170
-178 46 0 49 22 23 150 -29 142 -30 173 -6 168 12 -2 28 -36 57 -119 53 -153
62 -169 96 -169 48 0 59 30 59 153 0 98 2 108 18 105 14 -3 19 -22 28 -119 13
-123 22 -152 55 -170 16 -8 25 -7 39 6 23 21 28 48 40 228 5 82 12 153 16 158
3 5 14 9 25 9 18 0 19 -8 19 -141z m-1316 -763 c56 -26 167 -56 208 -56 34 0
58 -9 58 -23 0 -13 -187 -1 -255 17 -89 23 -144 63 -159 113 -13 41 4 44 51 8
25 -19 69 -46 97 -59z m-527 -1181 c12 -9 32 -29 44 -46 19 -28 20 -34 9 -75
-7 -24 -16 -44 -20 -44 -4 0 -13 14 -20 30 -7 17 -21 35 -31 41 -58 31 -68
-156 -15 -266 16 -33 42 -81 58 -106 26 -44 28 -53 28 -162 0 -107 2 -117 20
-127 41 -22 73 -8 100 41 14 25 37 61 51 80 25 31 28 33 54 21 l27 -13 -6 -97
c-11 -158 -16 -182 -36 -182 -10 0 -28 14 -40 30 -12 17 -25 30 -29 30 -4 0
-14 -15 -22 -32 -11 -26 -21 -34 -46 -36 -18 -2 -33 -7 -33 -12 0 -4 32 -37
71 -72 73 -66 82 -90 36 -102 -29 -8 -66 20 -95 72 -13 23 -28 42 -34 42 -14
0 -1 -85 20 -129 18 -38 88 -88 139 -97 l34 -6 -3 -72 c-3 -70 -3 -71 -32 -74
-24 -3 -39 7 -100 70 -121 124 -145 190 -171 458 -9 91 -27 212 -40 270 -34
151 -75 390 -75 438 0 52 11 80 45 115 32 31 78 36 112 12z m174 -318 c45 -53
60 -128 33 -158 -25 -28 -34 -23 -34 20 0 55 -20 68 -58 36 -16 -14 -35 -25
-41 -25 -16 0 -31 44 -31 94 0 38 3 44 33 59 48 24 60 21 98 -26z m2754 -437
c0 -20 -6 -26 -28 -28 -18 -2 -29 2 -33 12 -11 28 4 48 33 44 22 -2 28 -8 28
-28z m162 -10 c1 0 18 -14 38 -31 56 -49 44 -69 -39 -69 -45 0 -109 18 -103
29 2 3 11 25 21 47 18 40 19 42 50 33 17 -5 32 -9 33 -9z m-479 -177 c11 -16
31 -50 45 -78 15 -31 44 -64 74 -87 82 -62 196 -128 247 -143 56 -17 209 -20
271 -5 37 8 42 7 73 -22 37 -36 42 -81 17 -141 -18 -44 -39 -52 -140 -52 -74
0 -80 -2 -92 -25 -8 -15 -13 -66 -13 -130 0 -121 -12 -156 -84 -248 -24 -31
-51 -71 -60 -89 -15 -31 -39 -220 -29 -236 7 -11 57 1 126 31 76 33 80 27 73
-104 -8 -136 -33 -214 -98 -300 -103 -136 -161 -177 -196 -142 -17 17 -15 184
2 251 24 91 -18 228 -91 294 -26 25 -33 37 -27 50 15 35 15 131 -1 273 -9 80
-20 206 -25 280 -8 122 -13 147 -54 265 -36 103 -47 154 -56 243 -7 63 -9 120
-6 128 8 21 23 17 44 -13z m187 -68 c54 -39 139 -69 225 -79 63 -8 93 -26 88
-52 -6 -32 -47 -45 -125 -41 -59 3 -87 11 -157 45 -97 46 -136 80 -136 116 0
23 21 45 45 46 6 0 32 -16 60 -35z m-619 -1836 c40 2 53 -15 51 -67 0 -22 2
-44 6 -48 4 -4 45 -7 90 -5 78 2 84 0 105 -24 18 -21 22 -36 20 -73 -3 -42 -7
-49 -38 -65 -30 -16 -50 -18 -135 -13 -165 10 -265 -15 -361 -88 -57 -44 -77
-45 -197 -6 -113 36 -179 38 -240 9 -69 -34 -102 -23 -200 69 -46 42 -92 82
-102 88 -18 10 -18 11 5 26 14 8 38 22 53 32 15 9 35 34 45 54 9 20 18 39 19
41 1 2 94 14 205 27 112 13 235 30 273 38 53 12 106 14 220 9 83 -3 164 -5
181 -4z"/>
<path d="M840 4184 c-30 -25 -84 -59 -120 -77 -59 -29 -72 -32 -148 -30 -92 2
-107 -12 -37 -35 68 -23 167 10 270 89 39 29 107 102 93 98 -2 0 -28 -20 -58
-45z"/>
<path d="M830 4019 c-121 -85 -150 -98 -242 -110 -46 -6 -85 -12 -87 -15 -13
-13 30 -24 89 -24 77 0 96 10 234 123 82 67 106 89 94 87 -2 -1 -41 -28 -88
-61z"/>
<path d="M1655 3415 c-44 -8 -114 -14 -155 -14 -94 -1 -338 -29 -406 -47 -65
-17 -101 -46 -109 -87 -9 -39 -37 -71 -76 -87 -16 -7 -29 -18 -29 -24 0 -21
61 -105 92 -127 34 -25 37 -24 179 35 88 37 252 76 319 76 44 0 79 -30 57 -48
-7 -6 -53 -16 -102 -22 -97 -11 -182 -33 -229 -57 -33 -17 -126 -101 -126
-114 0 -16 35 -9 75 16 22 13 45 25 51 25 6 0 47 -36 91 -81 l79 -81 75 -9
c41 -4 100 -8 133 -9 l59 0 -6 -41 c-7 -54 9 -59 80 -23 32 16 61 31 65 32 5
2 8 -7 8 -20 0 -27 -21 -49 -95 -98 -80 -54 -305 -223 -301 -227 8 -9 106 37
162 74 32 22 145 84 249 137 105 53 206 110 225 125 19 16 45 31 56 35 33 10
60 45 107 136 24 47 63 117 87 155 78 126 190 319 190 327 0 17 -37 7 -79 -22
-60 -41 -108 -39 -241 6 -222 75 -218 74 -313 73 -51 -1 -128 -7 -172 -14z
m-60 -435 c0 -19 -6 -26 -26 -28 -14 -2 -31 4 -39 12 -18 22 5 48 39 44 20 -2
26 -9 26 -28z m123 15 c98 -15 62 -85 -43 -85 -39 0 -46 3 -41 16 3 9 6 31 6
50 0 29 3 34 18 30 9 -2 36 -8 60 -11z"/>
<path d="M1961 2248 c-93 -45 -274 -256 -401 -466 -79 -130 -153 -222 -205
-253 -25 -16 -26 -19 -10 -19 53 0 129 81 295 315 187 262 259 340 378 405 29
16 38 26 30 32 -20 12 -39 9 -87 -14z"/>
</g>
</svg>
