<?xml version="1.0" encoding="utf-8"?>
<!-- Generator: Adobe Illustrator 16.0.0, SVG Export Plug-In . SVG Version: 6.00 Build 0)  -->
<!DOCTYPE svg PUBLIC "-//W3C//DTD SVG 1.1//EN" "http://www.w3.org/Graphics/SVG/1.1/DTD/svg11.dtd">
<svg version="1.1" id="Layer_1" xmlns="http://www.w3.org/2000/svg" xmlns:xlink="http://www.w3.org/1999/xlink" x="0px" y="0px"
	 width="236.344px" height="238.588px" viewBox="0 0 236.344 238.588" enable-background="new 0 0 236.344 238.588"
	 xml:space="preserve">
<g>
	<path d="M-2372.417-96.723v-170.391h23.954c3.619,0,7.038,0.537,10.248,1.605c3.21,1.072,6.007,2.512,8.396,4.321
		c2.384,1.813,4.279,3.913,5.68,6.297c1.396,2.389,2.099,4.981,2.099,7.779v45.438c0,2.801-0.703,5.394-2.099,7.779
		c-1.401,2.388-3.295,4.487-5.68,6.297c-2.389,1.813-5.186,3.253-8.396,4.322c-3.21,1.072-6.629,1.605-10.248,1.605h-18.521v84.948
		H-2372.417z M-2348.463-185.623c5.761,0,10.699-1.52,14.816-4.568c4.113-3.044,6.173-6.872,6.173-11.483v-45.438
		c0-4.445-2.06-8.23-6.173-11.359c-4.117-3.125-9.056-4.692-14.816-4.692h-18.521v77.54H-2348.463z"/>
	<path d="M-2252.406-96.476v-7.902c-2.635,2.469-5.722,4.406-9.26,5.803c-3.542,1.4-7.451,2.099-11.73,2.099
		c-7.408,0-13.667-1.933-18.768-5.803c-5.105-3.866-7.655-8.601-7.655-14.199v-35.807c0-2.631,0.698-5.186,2.099-7.655
		c1.396-2.469,3.249-4.607,5.556-6.42c2.303-1.81,5.062-3.249,8.272-4.322c3.21-1.069,6.706-1.605,10.495-1.605
		c4.279,0,8.188,0.741,11.73,2.223c3.538,1.481,6.625,3.457,9.26,5.926v-39.017c0-4.279-2.061-8.026-6.174-11.236
		c-4.117-3.21-9.056-4.815-14.816-4.815c-5.927,0-10.908,1.605-14.94,4.815c-4.036,3.21-6.05,6.957-6.05,11.236v13.088h-5.433
		v-13.088c0-2.632,0.698-5.186,2.099-7.655c1.396-2.47,3.249-4.607,5.556-6.42c2.303-1.81,5.062-3.249,8.272-4.322
		c3.21-1.069,6.706-1.605,10.495-1.605c3.619,0,7.038,0.536,10.248,1.605c3.21,1.073,5.965,2.512,8.272,4.322
		c2.304,1.813,4.156,3.951,5.556,6.42c1.397,2.469,2.099,5.023,2.099,7.655v106.679H-2252.406z M-2288.336-105.119
		c4.032,3.129,9.013,4.692,14.94,4.692c5.761,0,10.7-1.563,14.816-4.692c4.113-3.125,6.174-6.915,6.174-11.359v-35.807
		c0-4.279-2.061-8.026-6.174-11.236c-4.117-3.21-9.056-4.815-14.816-4.815c-5.927,0-10.908,1.605-14.94,4.815
		c-4.036,3.21-6.05,6.957-6.05,11.236v35.807C-2294.386-112.034-2292.372-108.245-2288.336-105.119z"/>
	<path d="M-2222.529-96.723v-126.682h5.433v8.149c2.47-2.303,5.514-4.236,9.137-5.803c3.619-1.563,7.57-2.346,11.853-2.346
		c3.619,0,7.038,0.579,10.248,1.729c3.21,1.154,5.965,2.716,8.272,4.692c2.304,1.976,4.156,4.241,5.556,6.791
		c1.397,2.554,2.099,5.229,2.099,8.026h-5.186c0-2.304-0.537-4.526-1.605-6.667c-1.072-2.138-2.554-3.99-4.445-5.556
		c-1.895-1.563-4.117-2.798-6.667-3.705c-2.554-0.903-5.309-1.358-8.272-1.358c-5.927,0-10.908,1.605-14.94,4.815
		c-4.036,3.21-6.05,6.957-6.05,11.236v106.679H-2222.529z"/>
	<path d="M-2154.621-96.723v-126.682h5.433v8.149c2.47-2.303,5.514-4.236,9.137-5.803c3.619-1.563,7.57-2.346,11.853-2.346
		c3.619,0,7.038,0.579,10.248,1.729c3.21,1.154,5.965,2.716,8.272,4.692c2.304,1.976,4.156,4.241,5.556,6.791
		c1.397,2.554,2.099,5.229,2.099,8.026h-5.186c0-2.304-0.537-4.526-1.605-6.667c-1.072-2.138-2.554-3.99-4.445-5.556
		c-1.895-1.563-4.117-2.798-6.667-3.705c-2.554-0.903-5.309-1.358-8.272-1.358c-5.927,0-10.908,1.605-14.94,4.815
		c-4.036,3.21-6.05,6.957-6.05,11.236v106.679H-2154.621z"/>
	<path d="M-2039.3-96.476v-7.902c-2.635,2.469-5.722,4.406-9.26,5.803c-3.542,1.4-7.451,2.099-11.73,2.099
		c-7.408,0-13.667-1.933-18.768-5.803c-5.105-3.866-7.655-8.601-7.655-14.199v-35.807c0-2.631,0.698-5.186,2.099-7.655
		c1.396-2.469,3.249-4.607,5.556-6.42c2.303-1.81,5.062-3.249,8.272-4.322c3.21-1.069,6.706-1.605,10.495-1.605
		c4.279,0,8.188,0.741,11.73,2.223c3.538,1.481,6.625,3.457,9.26,5.926v-39.017c0-4.279-2.061-8.026-6.174-11.236
		c-4.117-3.21-9.056-4.815-14.816-4.815c-5.927,0-10.908,1.605-14.94,4.815c-4.036,3.21-6.05,6.957-6.05,11.236v13.088h-5.433
		v-13.088c0-2.632,0.698-5.186,2.099-7.655c1.396-2.47,3.249-4.607,5.556-6.42c2.303-1.81,5.062-3.249,8.272-4.322
		c3.21-1.069,6.706-1.605,10.495-1.605c3.619,0,7.038,0.536,10.248,1.605c3.21,1.073,5.965,2.512,8.272,4.322
		c2.304,1.813,4.156,3.951,5.556,6.42c1.397,2.469,2.099,5.023,2.099,7.655v106.679H-2039.3z M-2075.23-105.119
		c4.032,3.129,9.013,4.692,14.94,4.692c5.761,0,10.7-1.563,14.816-4.692c4.113-3.125,6.174-6.915,6.174-11.359v-35.807
		c0-4.279-2.061-8.026-6.174-11.236c-4.117-3.21-9.056-4.815-14.816-4.815c-5.927,0-10.908,1.605-14.94,4.815
		c-4.036,3.21-6.05,6.957-6.05,11.236v35.807C-2081.281-112.034-2079.267-108.245-2075.23-105.119z"/>
	<path d="M-2009.67-236.246v-20.002h5.186v20.002H-2009.67z M-2009.67-96.723v-126.682h5.186v126.682H-2009.67z"/>
</g>
<g>
	<defs>
		<rect id="SVGID_1_" x="-2097.125" y="-395.046" width="1.778" height="134.436"/>
	</defs>
	<clipPath id="SVGID_2_">
		<use xlink:href="#SVGID_1_"  overflow="visible"/>
	</clipPath>
	
		<linearGradient id="SVGID_3_" gradientUnits="userSpaceOnUse" x1="-2459.0146" y1="626.4058" x2="-2458.0146" y2="626.4058" gradientTransform="matrix(-0.3836 -138.4624 -138.4624 0.3836 83694.4766 -340979.4063)">
		<stop  offset="0" style="stop-color:#000000"/>
		<stop  offset="1" style="stop-color:#FFFFFF"/>
	</linearGradient>
	<polygon clip-path="url(#SVGID_2_)" fill="url(#SVGID_3_)" points="-2097.125,-260.605 -2097.498,-395.045 -2095.348,-395.051 
		-2094.975,-260.611 	"/>
</g>
<g>
	<defs>
		<rect id="SVGID_4_" x="-2245.881" y="-373.905" width="1.505" height="121.866"/>
	</defs>
	<clipPath id="SVGID_5_">
		<use xlink:href="#SVGID_4_"  overflow="visible"/>
	</clipPath>
	
		<linearGradient id="SVGID_6_" gradientUnits="userSpaceOnUse" x1="-2459.0146" y1="626.4058" x2="-2458.0146" y2="626.4058" gradientTransform="matrix(2.7816 -122.0409 -122.0409 -2.7816 81040.4141 -298608.9375)">
		<stop  offset="0" style="stop-color:#000000"/>
		<stop  offset="1" style="stop-color:#FFFFFF"/>
	</linearGradient>
	<polygon clip-path="url(#SVGID_5_)" fill="url(#SVGID_6_)" points="-2248.657,-252.103 -2245.88,-373.939 -2241.6,-373.842 
		-2244.376,-252.005 	"/>
</g>
<g>
	<defs>
		<rect id="SVGID_7_" x="-2077.283" y="-328.523" width="1.505" height="62.936"/>
	</defs>
	<clipPath id="SVGID_8_">
		<use xlink:href="#SVGID_7_"  overflow="visible"/>
	</clipPath>
	
		<linearGradient id="SVGID_9_" gradientUnits="userSpaceOnUse" x1="-2459.0146" y1="626.4058" x2="-2458.0146" y2="626.4058" gradientTransform="matrix(-0.7183 -63.7518 -63.7518 0.7183 36091.9648 -157481.5469)">
		<stop  offset="0" style="stop-color:#000000"/>
		<stop  offset="1" style="stop-color:#FFFFFF"/>
	</linearGradient>
	<polygon clip-path="url(#SVGID_8_)" fill="url(#SVGID_9_)" points="-2077.282,-265.57 -2077.992,-328.515 -2075.778,-328.54 
		-2075.068,-265.595 	"/>
</g>
<g>
	<defs>
		<rect id="SVGID_10_" x="-2226.311" y="-303.615" width="1.85" height="63.618"/>
	</defs>
	<clipPath id="SVGID_11_">
		<use xlink:href="#SVGID_10_"  overflow="visible"/>
	</clipPath>
	
		<linearGradient id="SVGID_12_" gradientUnits="userSpaceOnUse" x1="-2459.0146" y1="626.4058" x2="-2458.0146" y2="626.4058" gradientTransform="matrix(-0.1815 -65.5263 -65.5263 0.1815 38374.4258 -161482.5313)">
		<stop  offset="0" style="stop-color:#000000"/>
		<stop  offset="1" style="stop-color:#FFFFFF"/>
	</linearGradient>
	<polygon clip-path="url(#SVGID_11_)" fill="url(#SVGID_12_)" points="-2226.311,-239.992 -2226.487,-303.615 -2224.46,-303.62 
		-2224.284,-239.998 	"/>
</g>
<g>
	<defs>
		<line id="SVGID_13_" x1="-2245.168" y1="-382.876" x2="-2075.413" y2="-332.405"/>
	</defs>
	<clipPath id="SVGID_14_">
		<use xlink:href="#SVGID_13_"  overflow="visible"/>
	</clipPath>
	
		<linearGradient id="SVGID_15_" gradientUnits="userSpaceOnUse" x1="-2459.0146" y1="626.4058" x2="-2458.0146" y2="626.4058" gradientTransform="matrix(169.7561 0 0 -169.7561 415187.625 105978.6094)">
		<stop  offset="0" style="stop-color:#FFFFFF"/>
		<stop  offset="1" style="stop-color:#000000"/>
	</linearGradient>
	<rect x="-2245.168" y="-382.876" clip-path="url(#SVGID_14_)" fill="url(#SVGID_15_)" width="169.756" height="50.471"/>
</g>
<line fill="none" stroke="#000000" stroke-width="2" stroke-miterlimit="10" x1="-2245.168" y1="-382.876" x2="-2075.413" y2="-332.405"/>
<line fill="none" stroke="#000000" stroke-width="2" stroke-miterlimit="10" x1="-2093.314" y1="-408.594" x2="-2227.267" y2="-306.687"/>
<g>
	<defs>
		<rect id="SVGID_16_" x="-2146.53" y="-345.764" width="1.851" height="105.767"/>
	</defs>
	<clipPath id="SVGID_17_">
		<use xlink:href="#SVGID_16_"  overflow="visible"/>
	</clipPath>
	
		<linearGradient id="SVGID_18_" gradientUnits="userSpaceOnUse" x1="-2459.0146" y1="626.4067" x2="-2458.0146" y2="626.4067" gradientTransform="matrix(-0.3018 -108.9365 -108.9365 0.3018 65350.9453 -268303.4063)">
		<stop  offset="0" style="stop-color:#000000"/>
		<stop  offset="1" style="stop-color:#FFFFFF"/>
	</linearGradient>
	<polygon clip-path="url(#SVGID_17_)" fill="url(#SVGID_18_)" points="-2146.53,-239.992 -2146.823,-345.763 -2144.679,-345.77 
		-2144.386,-239.998 	"/>
</g>
<g>
	<path fill="#008AFF" d="M-1980.472-96.723v-170.391h4.939l42.474,150.882v-150.882h4.939v170.391h-4.692l-42.227-150.635v150.635
		H-1980.472z"/>
	<path fill="#008AFF" d="M-1889.104-96.723h-4.939l36.054-166.439h-45.438v-3.951h51.364L-1889.104-96.723z"/>
</g>
<g>
	<defs>
		<rect id="SVGID_19_" x="-2459.015" y="-485.594" width="1932" height="1112"/>
	</defs>
	<clipPath id="SVGID_20_">
		<use xlink:href="#SVGID_19_"  overflow="visible"/>
	</clipPath>
	<path clip-path="url(#SVGID_20_)" fill="#008AFF" d="M-922.015,465.406h-59c-6.6,0-12-5.4-12-12v-59c0-6.6,5.4-12,12-12h59
		c6.6,0,12,5.4,12,12v59C-910.015,460.005-915.415,465.406-922.015,465.406"/>
</g>
<g>
	<path fill="#FFFFFF" d="M-972.938,456.125v-63.091h1.828l15.728,55.867v-55.867h1.828v63.091h-1.737l-15.636-55.776v55.776
		H-972.938z"/>
	<path fill="#FFFFFF" d="M-939.108,456.125h-1.829l13.351-61.628h-16.824v-1.463h19.019L-939.108,456.125z"/>
</g>
<g>
	<path d="M-1222.417,330.277V159.886h23.954c3.619,0,7.038,0.536,10.248,1.605c3.21,1.072,6.008,2.512,8.396,4.321
		c2.385,1.813,4.279,3.912,5.68,6.297c1.397,2.389,2.1,4.981,2.1,7.779v45.438c0,2.801-0.702,5.394-2.1,7.778
		c-1.4,2.389-3.295,4.487-5.68,6.297c-2.388,1.813-5.186,3.253-8.396,4.321c-3.21,1.073-6.629,1.605-10.248,1.605h-18.521v84.948
		H-1222.417z M-1198.463,241.377c5.761,0,10.699-1.521,14.816-4.568c4.113-3.044,6.174-6.872,6.174-11.482v-45.438
		c0-4.445-2.061-8.23-6.174-11.359c-4.117-3.126-9.056-4.692-14.816-4.692h-18.521v77.54H-1198.463z"/>
	<path d="M-1147.35,260.639c-1.481,11.359-2.963,22.966-4.444,34.818c-1.481,11.854-3.13,23.46-4.939,34.819h-5.68l23.954-170.391
		h5.186l23.706,170.391h-5.186l-9.631-69.638H-1147.35z M-1124.631,256.688c-0.987-7.076-1.937-13.744-2.84-20.002
		c-0.906-6.255-1.771-12.386-2.593-18.397c-0.825-6.008-1.689-12.182-2.593-18.521c-0.906-6.336-1.937-13.127-3.087-20.373
		c-1.813,13.173-3.58,26.014-5.309,38.522c-1.729,12.514-3.581,25.436-5.557,38.771H-1124.631z"/>
	<path d="M-1092.037,330.277V159.886h23.954c3.619,0,7.038,0.536,10.248,1.605c3.21,1.072,6.008,2.512,8.396,4.321
		c2.385,1.813,4.279,3.912,5.68,6.297c1.397,2.389,2.1,4.981,2.1,7.779v45.438c0,3.95-1.443,7.493-4.321,10.618
		c-2.883,3.129-6.463,5.599-10.742,7.408c4.279,1.813,7.859,4.283,10.742,7.408c2.878,3.129,4.321,6.668,4.321,10.618v68.897h-5.433
		v-68.897c0-4.444-2.061-8.229-6.174-11.359c-4.117-3.125-9.056-4.691-14.816-4.691h-18.521v84.948H-1092.037z M-1068.083,241.377
		c5.761,0,10.699-1.521,14.816-4.568c4.113-3.044,6.174-6.872,6.174-11.482v-45.438c0-4.445-2.061-8.23-6.174-11.359
		c-4.117-3.126-9.056-4.692-14.816-4.692h-18.521v77.54H-1068.083z"/>
	<path d="M-1016.971,330.277V159.886h23.954c3.619,0,7.038,0.536,10.248,1.605c3.21,1.072,6.008,2.512,8.396,4.321
		c2.385,1.813,4.279,3.912,5.68,6.297c1.397,2.389,2.1,4.981,2.1,7.779v45.438c0,3.95-1.443,7.493-4.321,10.618
		c-2.883,3.129-6.463,5.599-10.742,7.408c4.279,1.813,7.859,4.283,10.742,7.408c2.878,3.129,4.321,6.668,4.321,10.618v68.897h-5.433
		v-68.897c0-4.444-2.061-8.229-6.174-11.359c-4.117-3.125-9.056-4.691-14.816-4.691h-18.521v84.948H-1016.971z M-993.017,241.377
		c5.761,0,10.699-1.521,14.816-4.568c4.113-3.044,6.174-6.872,6.174-11.482v-45.438c0-4.445-2.061-8.23-6.174-11.359
		c-4.117-3.126-9.056-4.692-14.816-4.692h-18.521v77.54H-993.017z"/>
	<path d="M-934.248,260.639c-1.481,11.359-2.963,22.966-4.444,34.818c-1.481,11.854-3.13,23.46-4.939,34.819h-5.68l23.954-170.391
		h5.186l23.706,170.391h-5.186l-9.631-69.638H-934.248z M-911.529,256.688c-0.987-7.076-1.937-13.744-2.84-20.002
		c-0.906-6.255-1.771-12.386-2.593-18.397c-0.825-6.008-1.689-12.182-2.593-18.521c-0.906-6.336-1.937-13.127-3.087-20.373
		c-1.813,13.173-3.58,26.014-5.309,38.522c-1.729,12.514-3.581,25.436-5.557,38.771H-911.529z"/>
	<path d="M-879.182,330.277V159.639h5.186v170.638H-879.182z"/>
</g>
<g>
	<path fill="#008AFF" d="M-851.509,330.277V159.886h4.939l42.474,150.882V159.886h4.939v170.391h-4.692l-42.227-150.635v150.635
		H-851.509z"/>
	<path fill="#008AFF" d="M-760.141,330.277h-4.939l36.054-166.439h-45.438v-3.951h51.364L-760.141,330.277z"/>
</g>
<g>
	<defs>
		<rect id="SVGID_21_" x="-2459.015" y="-485.594" width="1932" height="1112"/>
	</defs>
	<clipPath id="SVGID_22_">
		<use xlink:href="#SVGID_21_"  overflow="visible"/>
	</clipPath>
	<path clip-path="url(#SVGID_22_)" d="M-1641.891-105.612v-5.789c-2.548,1.809-5.532,3.228-8.952,4.25
		c-3.425,1.027-7.204,1.539-11.34,1.539c-7.162,0-13.213-1.417-18.144-4.252c-4.936-2.832-7.401-6.3-7.401-10.402v-26.23
		c0-1.927,0.675-3.799,2.029-5.608c1.35-1.808,3.141-3.374,5.372-4.703c2.226-1.325,4.893-2.38,7.997-3.165
		c3.104-0.784,6.483-1.176,10.147-1.176c4.136,0,7.915,0.543,11.34,1.628c3.42,1.085,6.404,2.533,8.952,4.342v-28.582
		c0-3.135-1.992-5.88-5.968-8.231c-3.98-2.352-8.755-3.528-14.324-3.528c-5.73,0-10.546,1.176-14.444,3.528
		c-3.902,2.351-5.849,5.096-5.849,8.231v9.587h-5.252v-9.587c0-1.929,0.675-3.8,2.029-5.609c1.35-1.808,3.141-3.374,5.372-4.703
		c2.226-1.326,4.893-2.38,7.997-3.166c3.104-0.783,6.483-1.175,10.147-1.175c3.498,0,6.804,0.392,9.907,1.175
		c3.104,0.786,5.767,1.84,7.998,3.166c2.227,1.329,4.017,2.895,5.371,4.703c1.351,1.809,2.03,3.68,2.03,5.609v78.148H-1641.891z
		 M-1676.627-111.944c3.898,2.292,8.714,3.437,14.444,3.437c5.569,0,10.344-1.145,14.324-3.437c3.976-2.29,5.968-5.065,5.968-8.322
		v-26.23c0-3.134-1.992-5.879-5.968-8.23c-3.98-2.352-8.755-3.528-14.324-3.528c-5.73,0-10.546,1.176-14.444,3.528
		c-3.902,2.351-5.849,5.096-5.849,8.23v26.23C-1682.476-117.009-1680.529-114.234-1676.627-111.944"/>
	<path clip-path="url(#SVGID_22_)" d="M-1613.006-105.793v-92.801h5.252v5.969c2.387-1.687,5.331-3.104,8.833-4.251
		c3.499-1.145,7.319-1.718,11.459-1.718c3.5,0,6.805,0.423,9.909,1.266c3.103,0.846,5.766,1.99,7.997,3.437
		c2.226,1.448,4.017,3.107,5.371,4.974c1.351,1.872,2.03,3.831,2.03,5.88h-5.014c0-1.688-0.518-3.316-1.551-4.884
		c-1.038-1.566-2.47-2.923-4.298-4.07c-1.831-1.145-3.98-2.05-6.446-2.715c-2.469-0.66-5.132-0.994-7.998-0.994
		c-5.729,0-10.544,1.176-14.443,3.528c-3.902,2.351-5.849,5.095-5.849,8.23v78.149H-1613.006z"/>
	<path clip-path="url(#SVGID_22_)" d="M-1447.518-105.612v-5.789c-2.549,1.809-5.532,3.228-8.952,4.25
		c-3.426,1.027-7.204,1.539-11.341,1.539c-7.162,0-13.213-1.417-18.144-4.252c-4.936-2.832-7.402-6.3-7.402-10.402v-26.23
		c0-1.927,0.676-3.799,2.031-5.608c1.35-1.808,3.141-3.374,5.371-4.703c2.227-1.325,4.894-2.38,7.998-3.165
		c3.104-0.784,6.483-1.176,10.146-1.176c4.137,0,7.915,0.543,11.341,1.628c3.42,1.085,6.403,2.533,8.952,4.342v-28.582
		c0-3.135-1.992-5.88-5.968-8.231c-3.98-2.352-8.756-3.528-14.325-3.528c-5.729,0-10.546,1.176-14.443,3.528
		c-3.901,2.351-5.849,5.096-5.849,8.231v9.587h-5.253v-9.587c0-1.929,0.676-3.8,2.031-5.609c1.35-1.808,3.141-3.374,5.371-4.703
		c2.227-1.326,4.894-2.38,7.998-3.166c3.104-0.783,6.483-1.175,10.146-1.175c3.5,0,6.804,0.392,9.908,1.175
		c3.104,0.786,5.767,1.84,7.998,3.166c2.226,1.329,4.017,2.895,5.371,4.703c1.351,1.809,2.029,3.68,2.029,5.609v78.148H-1447.518z
		 M-1482.254-111.944c3.897,2.292,8.715,3.437,14.443,3.437c5.569,0,10.345-1.145,14.325-3.437c3.976-2.29,5.968-5.065,5.968-8.322
		v-26.23c0-3.134-1.992-5.879-5.968-8.23c-3.98-2.352-8.756-3.528-14.325-3.528c-5.729,0-10.546,1.176-14.443,3.528
		c-3.901,2.351-5.849,5.096-5.849,8.23v26.23C-1488.103-117.009-1486.155-114.234-1482.254-111.944"/>
	<rect x="-1418.872" y="-198.594" clip-path="url(#SVGID_22_)" width="5.015" height="92.801"/>
	<path clip-path="url(#SVGID_22_)" fill="#008AFF" d="M-1390.228-105.793v-92.801h5.253v5.969c2.387-1.687,5.331-3.104,8.833-4.251
		c3.499-1.145,7.319-1.718,11.459-1.718c3.5,0,6.805,0.392,9.908,1.176c3.104,0.785,5.767,1.84,7.998,3.166
		c2.227,1.328,4.017,2.894,5.371,4.703c1.351,1.809,2.029,3.68,2.029,5.607v78.149h-5.014v-78.149c0-3.135-1.992-5.879-5.968-8.23
		c-3.98-2.352-8.756-3.528-14.325-3.528c-5.729,0-10.545,1.176-14.443,3.528c-3.901,2.351-5.849,5.095-5.849,8.23v78.149H-1390.228z
		"/>
	<path clip-path="url(#SVGID_22_)" d="M-1553.006-105.793v-92.801h5.252v5.969c2.387-1.687,5.331-3.104,8.833-4.251
		c3.499-1.145,7.319-1.718,11.459-1.718c3.5,0,6.804,0.423,9.909,1.266c3.103,0.846,5.766,1.99,7.998,3.437
		c2.225,1.448,4.016,3.107,5.37,4.974c1.351,1.872,2.03,3.831,2.03,5.88h-5.014c0-1.688-0.518-3.316-1.551-4.884
		c-1.037-1.566-2.47-2.923-4.298-4.07c-1.831-1.145-3.981-2.05-6.446-2.715c-2.469-0.66-5.132-0.994-7.998-0.994
		c-5.729,0-10.544,1.176-14.443,3.528c-3.902,2.351-5.849,5.095-5.849,8.23v78.149H-1553.006z"/>
</g>
<g>
	<defs>
		<rect id="SVGID_23_" x="-1423.64" y="-385.709" width="1.953" height="147.698"/>
	</defs>
	<clipPath id="SVGID_24_">
		<use xlink:href="#SVGID_23_"  overflow="visible"/>
	</clipPath>
	
		<linearGradient id="SVGID_25_" gradientUnits="userSpaceOnUse" x1="-2459.0146" y1="626.4067" x2="-2458.0146" y2="626.4067" gradientTransform="matrix(-0.4214 -152.1226 -152.1226 0.4214 92831.8516 -374570.6875)">
		<stop  offset="0" style="stop-color:#000000"/>
		<stop  offset="1" style="stop-color:#FFFFFF"/>
	</linearGradient>
	<polygon clip-path="url(#SVGID_24_)" fill="url(#SVGID_25_)" points="-1423.64,-238.006 -1424.049,-385.708 -1421.687,-385.714 
		-1421.277,-238.012 	"/>
</g>
<g>
	<defs>
		<rect id="SVGID_26_" x="-1587.072" y="-362.482" width="1.654" height="133.888"/>
	</defs>
	<clipPath id="SVGID_27_">
		<use xlink:href="#SVGID_26_"  overflow="visible"/>
	</clipPath>
	
		<linearGradient id="SVGID_28_" gradientUnits="userSpaceOnUse" x1="-2459.0146" y1="626.4048" x2="-2458.0146" y2="626.4048" gradientTransform="matrix(3.056 -134.0809 -134.0809 -3.056 89915.9922 -328020.1563)">
		<stop  offset="0" style="stop-color:#000000"/>
		<stop  offset="1" style="stop-color:#FFFFFF"/>
	</linearGradient>
	<polygon clip-path="url(#SVGID_27_)" fill="url(#SVGID_28_)" points="-1590.122,-228.664 -1587.071,-362.52 -1582.368,-362.413 
		-1585.418,-228.557 	"/>
</g>
<g>
	<defs>
		<rect id="SVGID_29_" x="-1401.841" y="-312.623" width="1.654" height="69.144"/>
	</defs>
	<clipPath id="SVGID_30_">
		<use xlink:href="#SVGID_29_"  overflow="visible"/>
	</clipPath>
	
		<linearGradient id="SVGID_31_" gradientUnits="userSpaceOnUse" x1="-2459.0146" y1="626.4058" x2="-2458.0146" y2="626.4058" gradientTransform="matrix(-0.7892 -70.0413 -70.0413 0.7892 40532.9727 -172969.7188)">
		<stop  offset="0" style="stop-color:#000000"/>
		<stop  offset="1" style="stop-color:#FFFFFF"/>
	</linearGradient>
	<polygon clip-path="url(#SVGID_30_)" fill="url(#SVGID_31_)" points="-1401.841,-243.46 -1402.62,-312.614 -1400.187,-312.642 
		-1399.407,-243.488 	"/>
</g>
<g>
	<defs>
		<rect id="SVGID_32_" x="-1565.572" y="-285.258" width="2.033" height="69.895"/>
	</defs>
	<clipPath id="SVGID_33_">
		<use xlink:href="#SVGID_32_"  overflow="visible"/>
	</clipPath>
	
		<linearGradient id="SVGID_34_" gradientUnits="userSpaceOnUse" x1="-2459.0146" y1="626.4058" x2="-2458.0146" y2="626.4058" gradientTransform="matrix(-0.1994 -71.9908 -71.9908 0.1994 43040.6445 -177365.4688)">
		<stop  offset="0" style="stop-color:#000000"/>
		<stop  offset="1" style="stop-color:#FFFFFF"/>
	</linearGradient>
	<polygon clip-path="url(#SVGID_33_)" fill="url(#SVGID_34_)" points="-1565.572,-215.357 -1565.765,-285.258 -1563.539,-285.264 
		-1563.345,-215.364 	"/>
</g>
<g>
	<defs>
		<path id="SVGID_35_" d="M-1399.784-316.888l-186.504-55.451L-1399.784-316.888z"/>
	</defs>
	<clipPath id="SVGID_36_">
		<use xlink:href="#SVGID_35_"  overflow="visible"/>
	</clipPath>
	
		<linearGradient id="SVGID_37_" gradientUnits="userSpaceOnUse" x1="-2459.0151" y1="626.4058" x2="-2458.0151" y2="626.4058" gradientTransform="matrix(186.5036 0 0 -186.5036 457028.75 116482.3203)">
		<stop  offset="0" style="stop-color:#FFFFFF"/>
		<stop  offset="1" style="stop-color:#000000"/>
	</linearGradient>
	<rect x="-1586.289" y="-372.339" clip-path="url(#SVGID_36_)" fill="url(#SVGID_37_)" width="186.504" height="55.451"/>
</g>
<g>
	<defs>
		<rect id="SVGID_38_" x="-2459.015" y="-485.594" width="1932" height="1112"/>
	</defs>
	<clipPath id="SVGID_39_">
		<use xlink:href="#SVGID_38_"  overflow="visible"/>
	</clipPath>
	
		<line clip-path="url(#SVGID_39_)" fill="none" stroke="#000000" stroke-width="2" stroke-miterlimit="10" x1="-1586.289" y1="-372.339" x2="-1399.786" y2="-316.888"/>
	
		<line clip-path="url(#SVGID_39_)" fill="none" stroke="#000000" stroke-width="2" stroke-miterlimit="10" x1="-1419.453" y1="-400.594" x2="-1566.621" y2="-288.634"/>
</g>
<g>
	<defs>
		<rect id="SVGID_40_" x="-1477.918" y="-331.565" width="2.034" height="116.202"/>
	</defs>
	<clipPath id="SVGID_41_">
		<use xlink:href="#SVGID_40_"  overflow="visible"/>
	</clipPath>
	
		<linearGradient id="SVGID_42_" gradientUnits="userSpaceOnUse" x1="-2459.0146" y1="626.4038" x2="-2458.0146" y2="626.4038" gradientTransform="matrix(-0.3315 -119.6837 -119.6837 0.3315 72678.5469 -294724.7813)">
		<stop  offset="0" style="stop-color:#000000"/>
		<stop  offset="1" style="stop-color:#FFFFFF"/>
	</linearGradient>
	<polygon clip-path="url(#SVGID_41_)" fill="url(#SVGID_42_)" points="-1477.918,-215.357 -1478.239,-331.564 -1475.884,-331.571 
		-1475.562,-215.364 	"/>
</g>
<g>
	<path d="M-1716.393-103.956v-219.698h30.885c4.667,0,9.074,0.691,13.214,2.07c4.139,1.383,7.746,3.239,10.826,5.572
		c3.074,2.338,5.517,5.045,7.323,8.12c1.801,3.079,2.706,6.422,2.706,10.029v58.586c0,3.612-0.905,6.955-2.706,10.029
		c-1.806,3.08-4.249,5.786-7.323,8.12c-3.08,2.338-6.687,4.194-10.826,5.572c-4.14,1.383-8.547,2.07-13.214,2.07h-23.88v109.53
		H-1716.393z M-1685.507-218.581c7.428,0,13.796-1.96,19.104-5.89c5.304-3.925,7.96-8.861,7.96-14.806v-58.586
		c0-5.731-2.656-10.612-7.96-14.646c-5.308-4.03-11.676-6.049-19.104-6.049h-23.88v99.978H-1685.507z"/>
</g>
<g>
	<path fill="#008AFF" d="M-1314.63-105.36h-6.319l46.133-212.97h-58.141v-5.056h65.724L-1314.63-105.36z"/>
</g>
<g>
	<defs>
		<rect id="SVGID_43_" x="-2459.015" y="-485.594" width="1932" height="1112"/>
	</defs>
	<clipPath id="SVGID_44_">
		<use xlink:href="#SVGID_43_"  overflow="visible"/>
	</clipPath>
	<path clip-path="url(#SVGID_44_)" fill="#008AFF" d="M-1780.727,2.471h-105.975c-35.789,0-65.071,29.282-65.071,65.071v105.976
		c0,35.789,29.282,65.071,65.071,65.071h105.975c35.789,0,65.071-29.282,65.071-65.071V67.542
		C-1715.656,31.752-1744.938,2.471-1780.727,2.471"/>
</g>
<g>
	<defs>
		<rect id="SVGID_45_" x="-1766.942" y="40.379" width="4.053" height="144.604"/>
	</defs>
	<clipPath id="SVGID_46_">
		<use xlink:href="#SVGID_45_"  overflow="visible"/>
	</clipPath>
	
		<linearGradient id="SVGID_47_" gradientUnits="userSpaceOnUse" x1="-2459.0146" y1="626.4058" x2="-2458.0146" y2="626.4058" gradientTransform="matrix(-0.4126 -148.9418 -148.9418 0.4126 90518.6797 -366320.6563)">
		<stop  offset="0" style="stop-color:#FFFFFF"/>
		<stop  offset="0.4108" style="stop-color:#FFFFFF"/>
		<stop  offset="1" style="stop-color:#008AFF"/>
	</linearGradient>
	<polygon clip-path="url(#SVGID_46_)" fill="url(#SVGID_47_)" points="-1766.942,184.994 -1767.343,40.38 -1762.89,40.368 
		-1762.489,184.982 	"/>
</g>
<g>
	<defs>
		<rect id="SVGID_48_" x="-1926.689" y="63.119" width="4.687" height="131.084"/>
	</defs>
	<clipPath id="SVGID_49_">
		<use xlink:href="#SVGID_48_"  overflow="visible"/>
	</clipPath>
	
		<linearGradient id="SVGID_50_" gradientUnits="userSpaceOnUse" x1="-2459.0146" y1="626.4067" x2="-2458.0146" y2="626.4067" gradientTransform="matrix(2.9935 -131.342 -131.342 -2.9935 87708.6719 -320901.3438)">
		<stop  offset="0" style="stop-color:#FFFFFF"/>
		<stop  offset="0.4108" style="stop-color:#FFFFFF"/>
		<stop  offset="1" style="stop-color:#008AFF"/>
	</linearGradient>
	<polygon clip-path="url(#SVGID_49_)" fill="url(#SVGID_50_)" points="-1929.676,194.134 -1926.687,63.012 -1919.017,63.187 
		-1922.005,194.309 	"/>
</g>
<g>
	<defs>
		<rect id="SVGID_51_" x="-1745.34" y="111.934" width="3.771" height="67.695"/>
	</defs>
	<clipPath id="SVGID_52_">
		<use xlink:href="#SVGID_51_"  overflow="visible"/>
	</clipPath>
	
		<linearGradient id="SVGID_53_" gradientUnits="userSpaceOnUse" x1="-2459.0146" y1="626.4058" x2="-2458.0146" y2="626.4058" gradientTransform="matrix(-0.7729 -68.5985 -68.5985 0.7729 39326.7422 -168988.5938)">
		<stop  offset="0" style="stop-color:#FFFFFF"/>
		<stop  offset="0.4108" style="stop-color:#FFFFFF"/>
		<stop  offset="1" style="stop-color:#008AFF"/>
	</linearGradient>
	<polygon clip-path="url(#SVGID_52_)" fill="url(#SVGID_53_)" points="-1745.339,179.672 -1746.103,111.943 -1741.569,111.891 
		-1740.806,179.622 	"/>
</g>
<g>
	<defs>
		<path id="SVGID_54_" d="M-1743.328,107.759l-182.596-54.291L-1743.328,107.759z"/>
	</defs>
	<clipPath id="SVGID_55_">
		<use xlink:href="#SVGID_54_"  overflow="visible"/>
	</clipPath>
	
		<linearGradient id="SVGID_56_" gradientUnits="userSpaceOnUse" x1="-2459.0151" y1="626.4058" x2="-2458.0151" y2="626.4058" gradientTransform="matrix(182.5964 0 0 -182.5964 447081.2813 114460.0781)">
		<stop  offset="0" style="stop-color:#FFFFFF"/>
		<stop  offset="1" style="stop-color:#000000"/>
	</linearGradient>
	<rect x="-1925.924" y="53.469" clip-path="url(#SVGID_55_)" fill="url(#SVGID_56_)" width="182.596" height="54.291"/>
</g>
<g>
	<defs>
		<rect id="SVGID_57_" x="-2459.015" y="-485.594" width="1932" height="1112"/>
	</defs>
	<clipPath id="SVGID_58_">
		<use xlink:href="#SVGID_57_"  overflow="visible"/>
	</clipPath>
	
		<line clip-path="url(#SVGID_58_)" fill="none" stroke="#FFFFFF" stroke-width="4" stroke-miterlimit="10" x1="-1925.924" y1="53.469" x2="-1743.327" y2="107.757"/>
	
		<line clip-path="url(#SVGID_58_)" fill="none" stroke="#FFFFFF" stroke-width="4" stroke-miterlimit="10" x1="-1762.583" y1="25.806" x2="-1906.668" y2="135.421"/>
</g>
<g>
	<defs>
		<rect id="SVGID_59_" x="-1819.823" y="93.388" width="4.953" height="113.768"/>
	</defs>
	<clipPath id="SVGID_60_">
		<use xlink:href="#SVGID_59_"  overflow="visible"/>
	</clipPath>
	
		<linearGradient id="SVGID_61_" gradientUnits="userSpaceOnUse" x1="-2459.0146" y1="626.4038" x2="-2458.0146" y2="626.4038" gradientTransform="matrix(-0.3246 -117.1848 -117.1848 0.3246 70789.8203 -288153.2188)">
		<stop  offset="0" style="stop-color:#FFFFFF"/>
		<stop  offset="0.4108" style="stop-color:#FFFFFF"/>
		<stop  offset="1" style="stop-color:#008AFF"/>
	</linearGradient>
	<polygon clip-path="url(#SVGID_60_)" fill="url(#SVGID_61_)" points="-1819.823,207.169 -1820.138,93.388 -1814.87,93.375 
		-1814.555,207.155 	"/>
</g>
<g>
	<defs>
		<rect id="SVGID_62_" x="-1904.646" y="146.039" width="5.198" height="66.966"/>
	</defs>
	<clipPath id="SVGID_63_">
		<use xlink:href="#SVGID_62_"  overflow="visible"/>
	</clipPath>
	
		<linearGradient id="SVGID_64_" gradientUnits="userSpaceOnUse" x1="-2459.0146" y1="626.4058" x2="-2458.0146" y2="626.4058" gradientTransform="matrix(-0.1911 -68.9856 -68.9856 0.1911 40841.0977 -169541.9063)">
		<stop  offset="0" style="stop-color:#FFFFFF"/>
		<stop  offset="0.4108" style="stop-color:#FFFFFF"/>
		<stop  offset="1" style="stop-color:#008AFF"/>
	</linearGradient>
	<polygon clip-path="url(#SVGID_63_)" fill="url(#SVGID_64_)" points="-1904.646,213.019 -1904.832,146.04 -1899.449,146.024 
		-1899.263,213.004 	"/>
</g>
<g>
	<defs>
		<rect id="SVGID_65_" x="-507.015" y="-485.594" width="1932" height="1112"/>
	</defs>
	<clipPath id="SVGID_66_">
		<use xlink:href="#SVGID_65_"  overflow="visible"/>
	</clipPath>
	<path clip-path="url(#SVGID_66_)" fill="#008AFF" d="M171.272,2.471H65.298c-35.789,0-65.07,29.282-65.07,65.071v105.976
		c0,35.789,29.281,65.071,65.07,65.071h105.975c35.789,0,65.071-29.282,65.071-65.071V67.542
		C236.344,31.752,207.062,2.471,171.272,2.471"/>
</g>
<g>
	<defs>
		<rect id="SVGID_67_" x="182.832" y="40.379" width="8.504" height="144.604"/>
	</defs>
	<clipPath id="SVGID_68_">
		<use xlink:href="#SVGID_67_"  overflow="visible"/>
	</clipPath>
	
		<linearGradient id="SVGID_69_" gradientUnits="userSpaceOnUse" x1="-2459.0513" y1="613.2993" x2="-2458.0508" y2="613.2993" gradientTransform="matrix(-0.4126 -148.9418 -148.9418 0.4126 90518.6797 -366320.6563)">
		<stop  offset="0" style="stop-color:#FFFFFF"/>
		<stop  offset="0.4108" style="stop-color:#FFFFFF"/>
		<stop  offset="1" style="stop-color:#008AFF"/>
	</linearGradient>
	<polygon clip-path="url(#SVGID_68_)" fill="url(#SVGID_69_)" points="182.832,184.994 181.992,40.38 191.336,40.368 
		192.176,184.982 	"/>
</g>
<g>
	<defs>
		<rect id="SVGID_70_" x="23.401" y="63.119" width="8.505" height="131.084"/>
	</defs>
	<clipPath id="SVGID_71_">
		<use xlink:href="#SVGID_70_"  overflow="visible"/>
	</clipPath>
	
		<linearGradient id="SVGID_72_" gradientUnits="userSpaceOnUse" x1="-2458.6772" y1="611.5522" x2="-2457.6753" y2="611.5522" gradientTransform="matrix(2.9935 -131.342 -131.342 -2.9935 87708.6719 -320901.3438)">
		<stop  offset="0" style="stop-color:#FFFFFF"/>
		<stop  offset="0.4108" style="stop-color:#FFFFFF"/>
		<stop  offset="1" style="stop-color:#008AFF"/>
	</linearGradient>
	<polygon clip-path="url(#SVGID_71_)" fill="url(#SVGID_72_)" points="17.983,194.134 23.407,63.012 37.324,63.187 31.902,194.309 	
		"/>
</g>
<g>
	<defs>
		<rect id="SVGID_73_" x="204.294" y="111.934" width="8.504" height="67.695"/>
	</defs>
	<clipPath id="SVGID_74_">
		<use xlink:href="#SVGID_73_"  overflow="visible"/>
	</clipPath>
	
		<linearGradient id="SVGID_75_" gradientUnits="userSpaceOnUse" x1="-2459.3354" y1="597.9546" x2="-2458.335" y2="597.9546" gradientTransform="matrix(-0.7729 -68.5985 -68.5985 0.7729 39326.7422 -168988.5938)">
		<stop  offset="0" style="stop-color:#FFFFFF"/>
		<stop  offset="0.4108" style="stop-color:#FFFFFF"/>
		<stop  offset="1" style="stop-color:#008AFF"/>
	</linearGradient>
	<polygon clip-path="url(#SVGID_74_)" fill="url(#SVGID_75_)" points="204.296,179.672 202.573,111.943 212.798,111.891 
		214.52,179.622 	"/>
</g>
<g>
	<defs>
		<path id="SVGID_76_" d="M208.673,107.759L26.076,53.469L208.673,107.759z"/>
	</defs>
	<clipPath id="SVGID_77_">
		<use xlink:href="#SVGID_76_"  overflow="visible"/>
	</clipPath>
	
		<linearGradient id="SVGID_78_" gradientUnits="userSpaceOnUse" x1="-2448.3247" y1="626.4058" x2="-2447.3247" y2="626.4058" gradientTransform="matrix(182.5964 0 0 -182.5964 447081.2813 114460.0781)">
		<stop  offset="0" style="stop-color:#FFFFFF"/>
		<stop  offset="1" style="stop-color:#000000"/>
	</linearGradient>
	<rect x="26.076" y="53.469" clip-path="url(#SVGID_77_)" fill="url(#SVGID_78_)" width="182.597" height="54.291"/>
</g>
<g>
	<defs>
		<rect id="SVGID_79_" x="-507.015" y="-485.594" width="1932" height="1112"/>
	</defs>
	<clipPath id="SVGID_80_">
		<use xlink:href="#SVGID_79_"  overflow="visible"/>
	</clipPath>
	
		<line clip-path="url(#SVGID_80_)" fill="none" stroke="#FFFFFF" stroke-width="7" stroke-miterlimit="10" x1="26.076" y1="53.469" x2="208.673" y2="107.757"/>
	
		<line clip-path="url(#SVGID_80_)" fill="none" stroke="#FFFFFF" stroke-width="7" stroke-miterlimit="10" x1="189.417" y1="25.806" x2="45.332" y2="135.421"/>
</g>
<g>
	<defs>
		<rect id="SVGID_81_" x="130.401" y="93.388" width="8.504" height="113.768"/>
	</defs>
	<clipPath id="SVGID_82_">
		<use xlink:href="#SVGID_81_"  overflow="visible"/>
	</clipPath>
	
		<linearGradient id="SVGID_83_" gradientUnits="userSpaceOnUse" x1="-2459.061" y1="609.7476" x2="-2458.0605" y2="609.7476" gradientTransform="matrix(-0.3246 -117.1848 -117.1848 0.3246 70789.8203 -288153.2188)">
		<stop  offset="0" style="stop-color:#FFFFFF"/>
		<stop  offset="0.4108" style="stop-color:#FFFFFF"/>
		<stop  offset="1" style="stop-color:#008AFF"/>
	</linearGradient>
	<polygon clip-path="url(#SVGID_82_)" fill="url(#SVGID_83_)" points="130.401,207.169 129.862,93.388 138.905,93.375 
		139.446,207.155 	"/>
</g>
<g>
	<defs>
		<rect id="SVGID_84_" x="45.7" y="146.039" width="8.505" height="66.966"/>
	</defs>
	<clipPath id="SVGID_85_">
		<use xlink:href="#SVGID_84_"  overflow="visible"/>
	</clipPath>
	
		<linearGradient id="SVGID_86_" gradientUnits="userSpaceOnUse" x1="-2459.0933" y1="598.1108" x2="-2458.0928" y2="598.1108" gradientTransform="matrix(-0.1911 -68.9856 -68.9856 0.1911 40841.0977 -169541.9063)">
		<stop  offset="0" style="stop-color:#FFFFFF"/>
		<stop  offset="0.4108" style="stop-color:#FFFFFF"/>
		<stop  offset="1" style="stop-color:#008AFF"/>
	</linearGradient>
	<polygon clip-path="url(#SVGID_85_)" fill="url(#SVGID_86_)" points="45.7,213.019 45.397,146.04 54.205,146.024 54.508,213.004 	
		"/>
</g>
</svg>
