<?xml version="1.0" encoding="utf-8"?>
<!-- Generator: Adobe Illustrator 16.0.0, SVG Export Plug-In . SVG Version: 6.00 Build 0)  -->
<!DOCTYPE svg PUBLIC "-//W3C//DTD SVG 1.1//EN" "http://www.w3.org/Graphics/SVG/1.1/DTD/svg11.dtd">
<svg version="1.1" xmlns="http://www.w3.org/2000/svg" xmlns:xlink="http://www.w3.org/1999/xlink" x="0px" y="0px"
	 width="236.116px" height="236.118px" viewBox="0 0 236.116 236.118" enable-background="new 0 0 236.116 236.118"
	 xml:space="preserve">
<g id="Layer_1">
	<path fill="#008AFF" d="M171.045,0H65.07C29.281,0,0,29.282,0,65.071v105.976c0,35.789,29.281,65.071,65.07,65.071h105.975
		c35.789,0,65.071-29.282,65.071-65.071V65.071C236.116,29.282,206.834,0,171.045,0"/>
	<g>
		<defs>
			<rect id="SVGID_65_" x="184.83" y="37.908" width="4.053" height="144.604"/>
		</defs>
		<clipPath id="SVGID_2_">
			<use xlink:href="#SVGID_65_"  overflow="visible"/>
		</clipPath>
		
			<linearGradient id="SVGID_3_" gradientUnits="userSpaceOnUse" x1="-3966.1821" y1="650.7085" x2="-3965.1816" y2="650.7085" gradientTransform="matrix(-0.4126 -148.9418 -148.9418 0.4126 95468.3984 -590813.3125)">
			<stop  offset="0" style="stop-color:#FFFFFF"/>
			<stop  offset="0.4108" style="stop-color:#FFFFFF"/>
			<stop  offset="1" style="stop-color:#008AFF"/>
		</linearGradient>
		<polygon clip-path="url(#SVGID_2_)" fill="url(#SVGID_3_)" points="184.83,182.523 184.43,37.909 188.883,37.897 189.283,182.511 
					"/>
	</g>
	<g>
		<defs>
			<rect id="SVGID_68_" x="25.083" y="60.648" width="4.687" height="131.084"/>
		</defs>
		<clipPath id="SVGID_5_">
			<use xlink:href="#SVGID_68_"  overflow="visible"/>
		</clipPath>
		
			<linearGradient id="SVGID_6_" gradientUnits="userSpaceOnUse" x1="-3965.4731" y1="647.6206" x2="-3964.4727" y2="647.6206" gradientTransform="matrix(2.9935 -131.342 -131.342 -2.9935 96956.4219 -518701.5313)">
			<stop  offset="0" style="stop-color:#FFFFFF"/>
			<stop  offset="0.4108" style="stop-color:#FFFFFF"/>
			<stop  offset="1" style="stop-color:#008AFF"/>
		</linearGradient>
		<polygon clip-path="url(#SVGID_5_)" fill="url(#SVGID_6_)" points="22.097,191.664 25.086,60.542 32.756,60.716 29.768,191.838 		
			"/>
	</g>
	<g>
		<defs>
			<rect id="SVGID_71_" x="206.433" y="109.463" width="3.771" height="67.695"/>
		</defs>
		<clipPath id="SVGID_8_">
			<use xlink:href="#SVGID_71_"  overflow="visible"/>
		</clipPath>
		
			<linearGradient id="SVGID_9_" gradientUnits="userSpaceOnUse" x1="-3966.292" y1="623.5063" x2="-3965.2925" y2="623.5063" gradientTransform="matrix(-0.7729 -68.5985 -68.5985 0.7729 39914.582 -272385.8125)">
			<stop  offset="0" style="stop-color:#FFFFFF"/>
			<stop  offset="0.4108" style="stop-color:#FFFFFF"/>
			<stop  offset="1" style="stop-color:#008AFF"/>
		</linearGradient>
		<polygon clip-path="url(#SVGID_8_)" fill="url(#SVGID_9_)" points="206.434,177.202 205.67,109.472 210.203,109.42 
			210.967,177.151 		"/>
	</g>
	<g>
		<defs>
			<path id="SVGID_74_" d="M208.445,105.289L25.849,50.998L208.445,105.289z"/>
		</defs>
		<clipPath id="SVGID_11_">
			<use xlink:href="#SVGID_74_"  overflow="visible"/>
		</clipPath>
		
			<linearGradient id="SVGID_12_" gradientUnits="userSpaceOnUse" x1="-3947.5093" y1="674.2095" x2="-3946.5093" y2="674.2095" gradientTransform="matrix(182.5964 0 0 -182.5964 720826.625 123186.2891)">
			<stop  offset="0" style="stop-color:#FFFFFF"/>
			<stop  offset="1" style="stop-color:#000000"/>
		</linearGradient>
		<rect x="25.849" y="50.998" clip-path="url(#SVGID_11_)" fill="url(#SVGID_12_)" width="182.597" height="54.291"/>
	</g>
	<line fill="none" stroke="#FFFFFF" stroke-width="4" stroke-miterlimit="10" x1="25.849" y1="50.998" x2="208.445" y2="105.287"/>
	<line fill="none" stroke="#FFFFFF" stroke-width="4" stroke-miterlimit="10" x1="189.189" y1="23.335" x2="45.104" y2="132.951"/>
	<g>
		<defs>
			<rect id="SVGID_77_" x="131.949" y="90.917" width="4.953" height="113.768"/>
		</defs>
		<clipPath id="SVGID_14_">
			<use xlink:href="#SVGID_77_"  overflow="visible"/>
		</clipPath>
		
			<linearGradient id="SVGID_15_" gradientUnits="userSpaceOnUse" x1="-3966.1084" y1="644.4136" x2="-3965.1079" y2="644.4136" gradientTransform="matrix(-0.3246 -117.1848 -117.1848 0.3246 74362.7734 -464770.0313)">
			<stop  offset="0" style="stop-color:#FFFFFF"/>
			<stop  offset="0.4108" style="stop-color:#FFFFFF"/>
			<stop  offset="1" style="stop-color:#008AFF"/>
		</linearGradient>
		<polygon clip-path="url(#SVGID_14_)" fill="url(#SVGID_15_)" points="131.949,204.699 131.635,90.917 136.902,90.904 
			137.218,204.684 		"/>
	</g>
	<g>
		<defs>
			<rect id="SVGID_80_" x="47.126" y="143.568" width="5.198" height="66.966"/>
		</defs>
		<clipPath id="SVGID_17_">
			<use xlink:href="#SVGID_80_"  overflow="visible"/>
		</clipPath>
		
			<linearGradient id="SVGID_18_" gradientUnits="userSpaceOnUse" x1="-3965.8672" y1="623.7896" x2="-3964.8672" y2="623.7896" gradientTransform="matrix(-0.1911 -68.9856 -68.9856 0.1911 42324.4258 -273494.9375)">
			<stop  offset="0" style="stop-color:#FFFFFF"/>
			<stop  offset="0.4108" style="stop-color:#FFFFFF"/>
			<stop  offset="1" style="stop-color:#008AFF"/>
		</linearGradient>
		<polygon clip-path="url(#SVGID_17_)" fill="url(#SVGID_18_)" points="47.126,210.548 46.94,143.569 52.324,143.553 52.51,210.534 
					"/>
	</g>
</g>
<g id="Layer_2">
</g>
</svg>
