<?xml version="1.0" encoding="utf-8"?>
<!-- Generator: Adobe Illustrator 16.0.0, SVG Export Plug-In . SVG Version: 6.00 Build 0)  -->
<!DOCTYPE svg PUBLIC "-//W3C//DTD SVG 1.1//EN" "http://www.w3.org/Graphics/SVG/1.1/DTD/svg11.dtd">
<svg version="1.1" xmlns="http://www.w3.org/2000/svg" xmlns:xlink="http://www.w3.org/1999/xlink" x="0px" y="0px"
	 width="492.105px" height="332.895px" viewBox="0 0 492.105 332.895" enable-background="new 0 0 492.105 332.895"
	 xml:space="preserve">
<g id="Layer_1">
</g>
<g id="Layer_2">
	<path d="M99.018,315.298v-5.789c-2.547,1.809-5.531,3.229-8.951,4.25c-3.426,1.027-7.204,1.539-11.34,1.539
		c-7.162,0-13.213-1.417-18.145-4.252c-4.936-2.832-7.4-6.3-7.4-10.402v-26.229c0-1.927,0.675-3.8,2.028-5.608
		c1.351-1.808,3.142-3.374,5.372-4.703c2.227-1.324,4.893-2.38,7.997-3.164c3.104-0.785,6.483-1.177,10.147-1.177
		c4.136,0,7.914,0.543,11.34,1.628c3.42,1.085,6.404,2.533,8.951,4.342V237.15c0-3.135-1.991-5.879-5.967-8.23
		c-3.98-2.352-8.756-3.528-14.324-3.528c-5.73,0-10.547,1.177-14.444,3.528c-3.901,2.352-5.849,5.096-5.849,8.23v9.588h-5.252
		v-9.588c0-1.929,0.675-3.8,2.028-5.608c1.351-1.808,3.142-3.374,5.372-4.703c2.227-1.326,4.893-2.38,7.997-3.166
		c3.104-0.783,6.483-1.175,10.147-1.175c3.498,0,6.804,0.392,9.906,1.175c3.104,0.786,5.768,1.84,7.998,3.166
		c2.228,1.329,4.018,2.896,5.371,4.703c1.352,1.809,2.03,3.68,2.03,5.608v78.148H99.018z M64.282,308.966
		c3.897,2.292,8.714,3.438,14.444,3.438c5.568,0,10.344-1.146,14.324-3.438c3.976-2.29,5.967-5.064,5.967-8.322v-26.229
		c0-3.134-1.991-5.88-5.967-8.23c-3.98-2.352-8.756-3.528-14.324-3.528c-5.73,0-10.547,1.177-14.444,3.528
		c-3.901,2.351-5.849,5.097-5.849,8.23v26.229C58.434,303.902,60.381,306.676,64.282,308.966"/>
	<path d="M127.902,315.117v-92.801h5.252v5.969c2.388-1.687,5.332-3.104,8.834-4.25c3.498-1.146,7.318-1.719,11.459-1.719
		c3.5,0,6.805,0.424,9.908,1.266c3.104,0.847,5.767,1.99,7.997,3.438c2.226,1.448,4.017,3.107,5.371,4.975
		c1.351,1.871,2.03,3.83,2.03,5.879h-5.014c0-1.688-0.519-3.315-1.551-4.883c-1.039-1.566-2.471-2.924-4.299-4.07
		c-1.831-1.145-3.98-2.051-6.445-2.715c-2.47-0.66-5.133-0.994-7.998-0.994c-5.729,0-10.545,1.176-14.443,3.527
		c-3.902,2.352-5.85,5.096-5.85,8.23v78.148H127.902z"/>
	<path d="M293.392,315.298v-5.789c-2.549,1.809-5.532,3.229-8.952,4.25c-3.426,1.027-7.204,1.539-11.341,1.539
		c-7.162,0-13.213-1.417-18.144-4.252c-4.936-2.832-7.402-6.3-7.402-10.402v-26.229c0-1.927,0.677-3.8,2.031-5.608
		c1.35-1.808,3.141-3.374,5.371-4.703c2.227-1.324,4.894-2.38,7.998-3.164c3.104-0.785,6.483-1.177,10.146-1.177
		c4.137,0,7.915,0.543,11.341,1.628c3.42,1.085,6.403,2.533,8.952,4.342V237.15c0-3.135-1.992-5.879-5.968-8.23
		c-3.98-2.352-8.756-3.528-14.325-3.528c-5.729,0-10.546,1.177-14.443,3.528c-3.901,2.352-5.849,5.096-5.849,8.23v9.588h-5.254
		v-9.588c0-1.929,0.677-3.8,2.031-5.608c1.35-1.808,3.141-3.374,5.371-4.703c2.227-1.326,4.894-2.38,7.998-3.166
		c3.104-0.783,6.483-1.175,10.146-1.175c3.5,0,6.804,0.392,9.908,1.175c3.104,0.786,5.767,1.84,7.998,3.166
		c2.226,1.329,4.017,2.896,5.371,4.703c1.351,1.809,2.029,3.68,2.029,5.608v78.148H293.392z M258.655,308.966
		c3.897,2.292,8.715,3.438,14.443,3.438c5.569,0,10.345-1.146,14.325-3.438c3.976-2.29,5.968-5.064,5.968-8.322v-26.229
		c0-3.134-1.992-5.88-5.968-8.23c-3.98-2.352-8.756-3.528-14.325-3.528c-5.729,0-10.546,1.177-14.443,3.528
		c-3.901,2.351-5.849,5.097-5.849,8.23v26.229C252.807,303.902,254.754,306.676,258.655,308.966"/>
	<rect x="322.037" y="222.316" width="5.015" height="92.801"/>
	<path fill="#008AFF" d="M350.682,315.117v-92.801h5.253v5.969c2.387-1.687,5.331-3.104,8.833-4.25
		c3.499-1.146,7.319-1.719,11.459-1.719c3.5,0,6.805,0.393,9.908,1.176c3.104,0.785,5.767,1.84,7.998,3.166
		c2.227,1.328,4.017,2.895,5.371,4.703c1.351,1.81,2.029,3.68,2.029,5.607v78.148h-5.014v-78.148c0-3.135-1.992-5.879-5.968-8.23
		c-3.98-2.352-8.756-3.527-14.325-3.527c-5.729,0-10.545,1.176-14.443,3.527c-3.901,2.352-5.849,5.096-5.849,8.23v78.148H350.682z"
		/>
	<path d="M187.902,315.117v-92.801h5.252v5.969c2.388-1.687,5.332-3.104,8.834-4.25c3.498-1.146,7.318-1.719,11.459-1.719
		c3.5,0,6.804,0.424,9.908,1.266c3.104,0.847,5.767,1.99,7.998,3.438c2.225,1.448,4.016,3.107,5.37,4.975
		c1.351,1.871,2.03,3.83,2.03,5.879h-5.014c0-1.688-0.519-3.315-1.551-4.883c-1.037-1.566-2.471-2.924-4.299-4.07
		c-1.831-1.145-3.98-2.051-6.445-2.715c-2.47-0.66-5.133-0.994-7.998-0.994c-5.729,0-10.545,1.176-14.443,3.527
		c-3.902,2.352-5.85,5.096-5.85,8.23v78.148H187.902z"/>
	<g>
		<defs>
			<rect id="SVGID_65_" x="317.27" y="35.201" width="1.953" height="147.698"/>
		</defs>
		<clipPath id="SVGID_2_">
			<use xlink:href="#SVGID_65_"  overflow="visible"/>
		</clipPath>
		
			<linearGradient id="SVGID_3_" gradientUnits="userSpaceOnUse" x1="-2608.0527" y1="743.9106" x2="-2607.0527" y2="743.9106" gradientTransform="matrix(-0.4214 -152.1226 -152.1226 0.4214 112385.0469 -396871.375)">
			<stop  offset="0" style="stop-color:#000000"/>
			<stop  offset="1" style="stop-color:#FFFFFF"/>
		</linearGradient>
		<polygon clip-path="url(#SVGID_2_)" fill="url(#SVGID_3_)" points="317.27,182.904 316.86,35.202 319.223,35.196 319.632,182.898 
					"/>
	</g>
	<g>
		<defs>
			<rect id="SVGID_68_" x="153.838" y="58.428" width="1.654" height="133.888"/>
		</defs>
		<clipPath id="SVGID_5_">
			<use xlink:href="#SVGID_68_"  overflow="visible"/>
		</clipPath>
		
			<linearGradient id="SVGID_6_" gradientUnits="userSpaceOnUse" x1="-2607.9541" y1="742.1919" x2="-2606.9541" y2="742.1919" gradientTransform="matrix(3.056 -134.0809 -134.0809 -3.056 107636.8906 -347215.3438)">
			<stop  offset="0" style="stop-color:#000000"/>
			<stop  offset="1" style="stop-color:#FFFFFF"/>
		</linearGradient>
		<polygon clip-path="url(#SVGID_5_)" fill="url(#SVGID_6_)" points="150.787,192.247 153.838,58.39 158.541,58.498 155.49,192.354 
					"/>
	</g>
	<g>
		<defs>
			<rect id="SVGID_71_" x="339.068" y="108.287" width="1.654" height="69.144"/>
		</defs>
		<clipPath id="SVGID_8_">
			<use xlink:href="#SVGID_71_"  overflow="visible"/>
		</clipPath>
		
			<linearGradient id="SVGID_9_" gradientUnits="userSpaceOnUse" x1="-2610.5635" y1="729.4097" x2="-2609.5635" y2="729.4097" gradientTransform="matrix(-0.7892 -70.0413 -70.0413 0.7892 49368.875 -183244.75)">
			<stop  offset="0" style="stop-color:#000000"/>
			<stop  offset="1" style="stop-color:#FFFFFF"/>
		</linearGradient>
		<polygon clip-path="url(#SVGID_8_)" fill="url(#SVGID_9_)" points="339.068,177.45 338.289,108.296 340.723,108.269 
			341.502,177.422 		"/>
	</g>
	<g>
		<defs>
			<rect id="SVGID_74_" x="175.338" y="135.652" width="2.033" height="69.895"/>
		</defs>
		<clipPath id="SVGID_11_">
			<use xlink:href="#SVGID_74_"  overflow="visible"/>
		</clipPath>
		
			<linearGradient id="SVGID_12_" gradientUnits="userSpaceOnUse" x1="-2610.2202" y1="730.1021" x2="-2609.2202" y2="730.1021" gradientTransform="matrix(-0.1994 -71.9908 -71.9908 0.1994 52216.5625 -187850.6719)">
			<stop  offset="0" style="stop-color:#000000"/>
			<stop  offset="1" style="stop-color:#FFFFFF"/>
		</linearGradient>
		<polygon clip-path="url(#SVGID_11_)" fill="url(#SVGID_12_)" points="175.338,205.552 175.145,135.652 177.371,135.646 
			177.564,205.546 		"/>
	</g>
	<g>
		<defs>
			<path id="SVGID_77_" d="M341.125,104.022L154.621,48.571L341.125,104.022z"/>
		</defs>
		<clipPath id="SVGID_14_">
			<use xlink:href="#SVGID_77_"  overflow="visible"/>
		</clipPath>
		
			<linearGradient id="SVGID_15_" gradientUnits="userSpaceOnUse" x1="-2595.9829" y1="754.7554" x2="-2594.9829" y2="754.7554" gradientTransform="matrix(186.5036 0 0 -186.5036 484314.625 140840.9375)">
			<stop  offset="0" style="stop-color:#FFFFFF"/>
			<stop  offset="1" style="stop-color:#000000"/>
		</linearGradient>
		<rect x="154.621" y="48.571" clip-path="url(#SVGID_14_)" fill="url(#SVGID_15_)" width="186.504" height="55.451"/>
	</g>
	<line fill="none" stroke="#000000" stroke-width="2" stroke-miterlimit="10" x1="154.621" y1="48.571" x2="341.123" y2="104.022"/>
	<line fill="none" stroke="#000000" stroke-width="2" stroke-miterlimit="10" x1="321.456" y1="20.316" x2="174.288" y2="132.276"/>
	<g>
		<defs>
			<rect id="SVGID_80_" x="262.991" y="89.345" width="2.034" height="116.202"/>
		</defs>
		<clipPath id="SVGID_17_">
			<use xlink:href="#SVGID_80_"  overflow="visible"/>
		</clipPath>
		
			<linearGradient id="SVGID_18_" gradientUnits="userSpaceOnUse" x1="-2608.5806" y1="740.5454" x2="-2607.5806" y2="740.5454" gradientTransform="matrix(-0.3315 -119.6837 -119.6837 0.3315 88030.8281 -312242.3125)">
			<stop  offset="0" style="stop-color:#000000"/>
			<stop  offset="1" style="stop-color:#FFFFFF"/>
		</linearGradient>
		<polygon clip-path="url(#SVGID_17_)" fill="url(#SVGID_18_)" points="262.991,205.552 262.67,89.346 265.025,89.339 
			265.348,205.546 		"/>
	</g>
	<g>
		<path d="M24.517,316.955V97.257h30.886c4.666,0,9.074,0.691,13.213,2.07c4.14,1.383,7.746,3.239,10.826,5.572
			c3.074,2.338,5.518,5.045,7.323,8.12c1.801,3.079,2.706,6.422,2.706,10.029v58.586c0,3.612-0.905,6.955-2.706,10.029
			c-1.806,3.08-4.249,5.786-7.323,8.12c-3.08,2.338-6.687,4.193-10.826,5.572c-4.139,1.383-8.547,2.069-13.213,2.069H31.521v109.53
			H24.517z M55.402,202.33c7.428,0,13.795-1.96,19.104-5.89c5.304-3.925,7.96-8.861,7.96-14.806v-58.586
			c0-5.731-2.656-10.612-7.96-14.646c-5.309-4.03-11.676-6.049-19.104-6.049H31.521v99.978H55.402z"/>
	</g>
	<g>
		<path fill="#008AFF" d="M426.279,315.55h-6.319l46.133-212.97h-58.141v-5.056h65.724L426.279,315.55z"/>
	</g>
</g>
</svg>
